HIERARCHY
ROOT Hips
{
	OFFSET 0.000000 1.471914 24.280096
	CHANNELS 6 Xposition Yposition Zposition Xrotation Yrotation Zrotation
	JOINT Spine
	{
		OFFSET 0.000000 0.900110 1.860670
		CHANNELS 6 Xposition Yposition Zposition Xrotation Yrotation Zrotation
		JOINT Spine1
		{
			OFFSET 0.000000 0.400320 2.270309
			CHANNELS 6 Xposition Yposition Zposition Xrotation Yrotation Zrotation
			JOINT Spine2
			{
				OFFSET 0.000000 0.200920 2.296560
				CHANNELS 6 Xposition Yposition Zposition Xrotation Yrotation Zrotation
				JOINT Spine3
				{
					OFFSET 0.000000 0.000000 2.305330
					CHANNELS 6 Xposition Yposition Zposition Xrotation Yrotation Zrotation
					JOINT Neck
					{
						OFFSET 0.000000 -0.864490 6.051487
						CHANNELS 6 Xposition Yposition Zposition Xrotation Yrotation Zrotation
						JOINT Head
						{
							OFFSET 0.000000 -0.550429 3.121674
							CHANNELS 6 Xposition Yposition Zposition Xrotation Yrotation Zrotation
							End Site
							{
								OFFSET 0.000000 0.000000 3.731750
							}
						}
					}
					JOINT RightShoulder
					{
						OFFSET -0.788280 -1.313800 4.256718
						CHANNELS 6 Xposition Yposition Zposition Xrotation Yrotation Zrotation
						JOINT RightArm
						{
							OFFSET -3.915130 0.000000 0.000000
							CHANNELS 6 Xposition Yposition Zposition Xrotation Yrotation Zrotation
							JOINT RightForeArm
							{
								OFFSET -6.914910 0.000000 0.000000
								CHANNELS 6 Xposition Yposition Zposition Xrotation Yrotation Zrotation
								JOINT RightHand
								{
									OFFSET -6.096219 0.000000 0.000000
									CHANNELS 6 Xposition Yposition Zposition Xrotation Yrotation Zrotation
									JOINT RightHandEnd
									{
										OFFSET -1.749950 0.000000 0.000000
										CHANNELS 6 Xposition Yposition Zposition Xrotation Yrotation Zrotation
										End Site
										{
											OFFSET -1.749950 0.000000 0.000000
										}
									}
									JOINT RightHandThumb1
									{
										OFFSET -0.699980 -1.166630 -0.466648
										CHANNELS 6 Xposition Yposition Zposition Xrotation Yrotation Zrotation
										End Site
										{
											OFFSET -1.690319 -0.452920 0.000000
										}
									}
								}
							}
						}
					}
					JOINT LeftShoulder
					{
						OFFSET 0.788280 -1.313800 4.256718
						CHANNELS 6 Xposition Yposition Zposition Xrotation Yrotation Zrotation
						JOINT LeftArm
						{
							OFFSET 3.915130 0.000000 0.000000
							CHANNELS 6 Xposition Yposition Zposition Xrotation Yrotation Zrotation
							JOINT LeftForeArm
							{
								OFFSET 6.914910 0.000000 0.000000
								CHANNELS 6 Xposition Yposition Zposition Xrotation Yrotation Zrotation
								JOINT LeftHand
								{
									OFFSET 6.096219 0.000000 0.000000
									CHANNELS 6 Xposition Yposition Zposition Xrotation Yrotation Zrotation
									JOINT LeftHandEnd
									{
										OFFSET 1.749950 0.000000 0.000000
										CHANNELS 6 Xposition Yposition Zposition Xrotation Yrotation Zrotation
										End Site
										{
											OFFSET 1.749950 0.000000 0.000000
										}
									}
									JOINT LeftHandThumb1
									{
										OFFSET 0.699980 -1.166630 -0.466648
										CHANNELS 6 Xposition Yposition Zposition Xrotation Yrotation Zrotation
										End Site
										{
											OFFSET 1.690319 -0.452920 0.000000
										}
									}
								}
							}
						}
					}
				}
			}
		}
	}
	JOINT RightUpLeg
	{
		OFFSET -2.338570 -0.252550 -0.551512
		CHANNELS 6 Xposition Yposition Zposition Xrotation Yrotation Zrotation
		JOINT RightLeg
		{
			OFFSET 0.000000 0.000000 -10.744959
			CHANNELS 6 Xposition Yposition Zposition Xrotation Yrotation Zrotation
			JOINT RightFoot
			{
				OFFSET 0.000000 -0.000001 -10.930849
				CHANNELS 6 Xposition Yposition Zposition Xrotation Yrotation Zrotation
				JOINT RightToeBase
				{
					OFFSET 0.000000 -4.087269 -1.487650
					CHANNELS 6 Xposition Yposition Zposition Xrotation Yrotation Zrotation
					End Site
					{
						OFFSET 0.000000 -1.891870 0.000000
					}
				}
			}
		}
	}
	JOINT LeftUpLeg
	{
		OFFSET 2.338570 -0.252550 -0.551512
		CHANNELS 6 Xposition Yposition Zposition Xrotation Yrotation Zrotation
		JOINT LeftLeg
		{
			OFFSET 0.000000 0.000000 -10.744959
			CHANNELS 6 Xposition Yposition Zposition Xrotation Yrotation Zrotation
			JOINT LeftFoot
			{
				OFFSET 0.000000 -0.000001 -10.930849
				CHANNELS 6 Xposition Yposition Zposition Xrotation Yrotation Zrotation
				JOINT LeftToeBase
				{
					OFFSET 0.000000 -4.087269 -1.487650
					CHANNELS 6 Xposition Yposition Zposition Xrotation Yrotation Zrotation
					End Site
					{
						OFFSET 0.000000 -1.891870 0.000000
					}
				}
			}
		}
	}
}
MOTION
Frames: 5
Frame Time: 0.041667
0.000007 26.544710 40.303429 -19.700566 -6.205843 -6.194943 -0.000007 0.900097 1.860697 30.604677 -2.348011 -5.275793 -0.000000 0.400302 2.270293 -0.000005 -0.000001 0.000001 0.000012 0.200922 2.296522 0.000000 0.000001 -0.000001 0.000008 -0.000023 2.305347 0.000013 -0.000003 4.582813 -0.000011 -0.864465 6.051528 -6.026405 5.952003 -174.401886 0.000015 -0.550433 3.121693 0.000001 -0.000000 -0.000001 -0.788285 -1.313754 4.256758 -123.371726 40.201097 -62.356793 -3.915103 -0.000017 -0.000008 -0.000006 -0.000001 -0.000004 -6.914874 0.000007 0.000001 0.000013 0.000007 -36.813275 -6.096203 -0.000006 0.000016 -0.000024 -0.000018 -0.000091 -1.749929 0.000012 -0.000023 0.000002 0.000001 0.000002 -0.700000 -1.166613 -0.466640 0.000006 0.000002 -0.000004 0.788263 -1.313801 4.256718 -180.627822 -65.497635 6.127506 3.915153 -0.000010 0.000011 -0.000000 0.000002 -0.000000 6.914894 -0.000011 -0.000009 0.000015 -0.000004 25.895800 6.096224 0.000034 0.000011 -0.000011 0.000033 0.000054 1.749938 0.000012 -0.000006 -0.000001 0.000001 -0.000002 0.699988 -1.166605 -0.466663 0.000009 0.000000 -0.000019 -2.338578 -0.252549 -0.551516 21.602116 4.022897 -3.755616 0.000004 -0.000002 -10.744948 18.030656 11.180579 -1.695451 -0.000009 0.000003 -10.930852 0.000002 -0.000002 -0.000001 0.000014 -4.087268 -1.487635 0.000005 0.000001 -0.000000 2.338567 -0.252552 -0.551452 25.986006 8.260491 -4.457629 -0.000002 -0.000003 -10.744929 8.563274 2.739438 -0.140921 0.000005 0.000000 -10.930866 0.000019 -0.000003 0.000000 -0.000008 -4.087230 -1.487643 0.000007 -0.000001 -0.000004 
0.000021 26.544706 40.303406 -19.265049 -4.714139 -7.628847 -0.000005 0.900092 1.860693 30.344475 -2.706634 -4.926592 -0.000002 0.400307 2.270294 -0.000004 0.000001 0.000001 0.000012 0.200924 2.296522 -0.000001 -0.000000 -0.000001 0.000010 -0.000021 2.305343 0.000013 -0.000001 3.651787 -0.000009 -0.864474 6.051523 -7.013822 5.548677 -172.641829 0.000015 -0.550428 3.121685 0.000000 -0.000000 -0.000001 -0.788288 -1.313761 4.256752 -122.132484 39.504376 -61.846898 -3.915107 -0.000019 -0.000015 -0.000002 0.000000 -0.000004 -6.914869 0.000009 -0.000000 0.000013 0.000013 -31.515507 -6.096201 -0.000004 0.000016 -0.000029 -0.000017 -0.000089 -1.749934 0.000010 -0.000027 0.000003 -0.000001 -0.000000 -0.700002 -1.166612 -0.466645 0.000006 -0.000001 -0.000008 0.788264 -1.313804 4.256711 -170.365026 -66.783971 16.047835 3.915154 -0.000009 0.000015 -0.000002 0.000001 -0.000000 6.914892 -0.000004 -0.000005 0.000015 -0.000007 23.441066 6.096231 0.000034 0.000008 -0.000009 0.000029 0.000054 1.749936 0.000012 -0.000012 -0.000005 -0.000007 0.000003 0.699989 -1.166607 -0.466661 0.000001 -0.000006 -0.000013 -2.338576 -0.252554 -0.551510 21.941515 2.841183 -3.592526 0.000003 -0.000003 -10.744953 16.631905 10.407619 -1.735716 -0.000007 0.000008 -10.930850 0.000002 -0.000003 -0.000002 0.000013 -4.087265 -1.487637 0.000001 0.000001 0.000000 2.338570 -0.252557 -0.551454 25.046155 7.134963 -4.056203 -0.000002 0.000000 -10.744929 8.925624 3.156240 -0.247212 0.000004 -0.000003 -10.930863 0.000022 -0.000004 0.000002 -0.000008 -4.087231 -1.487642 -0.000002 -0.000002 -0.000003 
0.000033 26.544695 40.303383 -18.211345 -2.946587 -9.469950 -0.000005 0.900094 1.860695 29.744261 -3.639626 -4.492212 -0.000000 0.400307 2.270293 -0.000006 0.000000 -0.000001 0.000012 0.200928 2.296513 -0.000001 0.000000 -0.000001 0.000010 -0.000026 2.305343 0.000010 -0.000000 2.721191 -0.000009 -0.864470 6.051523 -8.054788 5.490684 -170.436224 0.000015 -0.550432 3.121689 0.000003 -0.000000 -0.000001 -0.788286 -1.313761 4.256748 -123.010682 41.637489 -59.552597 -3.915109 -0.000017 -0.000015 -0.000005 -0.000000 -0.000003 -6.914876 0.000009 -0.000004 0.000013 0.000017 -26.529124 -6.096199 -0.000004 0.000016 -0.000024 -0.000017 -0.000090 -1.749924 0.000013 -0.000026 0.000004 -0.000000 0.000002 -0.700000 -1.166614 -0.466641 0.000012 0.000001 -0.000005 0.788263 -1.313803 4.256714 -154.441970 -66.408700 30.880361 3.915148 -0.000008 0.000015 -0.000004 0.000002 -0.000001 6.914890 -0.000012 -0.000010 0.000013 -0.000010 21.432504 6.096236 0.000033 0.000009 -0.000009 0.000028 0.000052 1.749932 0.000011 -0.000013 -0.000003 -0.000004 -0.000001 0.699982 -1.166607 -0.466665 0.000004 -0.000003 -0.000019 -2.338577 -0.252550 -0.551516 21.794224 1.970228 -3.311614 0.000004 -0.000005 -10.744951 14.418637 8.960132 -1.563300 -0.000008 0.000005 -10.930852 0.000007 -0.000002 -0.000001 0.000013 -4.087277 -1.487638 0.000006 0.000001 -0.000001 2.338568 -0.252551 -0.551458 23.659348 5.834272 -3.567200 -0.000001 -0.000001 -10.744929 8.688743 3.134708 -0.353638 0.000004 -0.000000 -10.930863 0.000022 -0.000004 0.000000 -0.000007 -4.087232 -1.487643 0.000004 -0.000002 -0.000004 
0.000042 26.544685 40.303383 -17.146773 -1.255348 -11.786668 -0.000005 0.900095 1.860697 28.921931 -4.136994 -3.983227 0.000000 0.400301 2.270304 -0.000004 -0.000001 -0.000001 0.000011 0.200925 2.296516 -0.000000 -0.000000 -0.000001 0.000009 -0.000032 2.305339 0.000012 -0.000002 2.164815 -0.000009 -0.864463 6.051527 -8.499230 5.604420 -168.752637 0.000015 -0.550436 3.121700 0.000001 0.000000 -0.000001 -0.788284 -1.313759 4.256754 -125.269986 45.062286 -56.211415 -3.915107 -0.000014 -0.000011 -0.000005 -0.000001 -0.000003 -6.914866 0.000003 -0.000007 0.000012 0.000022 -22.707903 -6.096203 -0.000001 0.000020 -0.000028 -0.000017 -0.000093 -1.749936 0.000005 -0.000023 0.000002 0.000001 0.000001 -0.700003 -1.166615 -0.466641 0.000006 0.000003 -0.000006 0.788261 -1.313798 4.256716 -141.017657 -65.097952 43.261370 3.915153 -0.000012 0.000008 -0.000000 -0.000000 0.000001 6.914890 -0.000005 -0.000003 0.000015 -0.000015 19.987273 6.096234 0.000031 0.000006 -0.000006 0.000028 0.000049 1.749937 0.000010 -0.000012 -0.000006 -0.000003 -0.000003 0.699986 -1.166610 -0.466664 0.000006 -0.000002 -0.000019 -2.338577 -0.252554 -0.551510 21.550497 1.317719 -2.981319 0.000004 -0.000001 -10.744950 12.576509 7.672130 -1.348087 -0.000007 0.000004 -10.930853 0.000005 -0.000002 -0.000002 0.000013 -4.087268 -1.487637 0.000006 0.000001 0.000000 2.338568 -0.252554 -0.551457 22.496454 4.675401 -3.096991 -0.000002 0.000000 -10.744922 8.459299 2.828132 -0.415376 0.000004 0.000006 -10.930866 0.000022 -0.000003 0.000000 -0.000007 -4.087231 -1.487646 0.000001 -0.000003 -0.000005 
0.000040 26.544695 40.303398 -16.233966 0.601844 -14.385799 -0.000006 0.900090 1.860687 28.400541 -4.840862 -3.526513 -0.000001 0.400304 2.270294 -0.000003 0.000000 0.000002 0.000011 0.200928 2.296518 -0.000000 -0.000001 0.000001 0.000009 -0.000023 2.305346 0.000016 0.000001 1.097362 -0.000011 -0.864470 6.051522 -9.073405 5.560832 -167.658905 0.000015 -0.550429 3.121689 0.000001 0.000000 -0.000000 -0.788285 -1.313762 4.256753 -130.702882 49.550936 -50.623597 -3.915105 -0.000017 -0.000015 -0.000004 -0.000000 -0.000003 -6.914873 0.000006 -0.000002 0.000011 0.000024 -20.289902 -6.096200 -0.000004 0.000013 -0.000025 -0.000015 -0.000090 -1.749935 0.000010 -0.000019 0.000002 0.000000 0.000001 -0.699998 -1.166612 -0.466637 0.000008 0.000001 -0.000004 0.788261 -1.313803 4.256713 -130.025410 -62.706348 53.690963 3.915153 -0.000010 0.000008 0.000002 -0.000003 0.000000 6.914892 -0.000009 -0.000011 0.000018 -0.000015 19.382643 6.096229 0.000032 0.000011 -0.000008 0.000032 0.000051 1.749935 0.000012 -0.000014 -0.000003 -0.000003 -0.000001 0.699988 -1.166608 -0.466661 0.000009 -0.000002 -0.000017 -2.338578 -0.252556 -0.551515 21.307202 0.736156 -2.653719 0.000005 0.000000 -10.744953 11.294519 6.202736 -1.180367 -0.000009 0.000005 -10.930850 0.000007 -0.000002 -0.000000 0.000013 -4.087271 -1.487639 -0.000000 -0.000001 -0.000000 2.338568 -0.252556 -0.551460 21.665929 3.374751 -2.691759 -0.000001 0.000002 -10.744925 8.191768 2.603466 -0.486041 0.000004 -0.000002 -10.930864 0.000019 -0.000003 -0.000000 -0.000008 -4.087232 -1.487646 0.000001 -0.000002 -0.000005 
